<svg width="30" height="30" viewBox="0 0 30 30" fill="none" xmlns="http://www.w3.org/2000/svg">
<circle cx="15" cy="15" r="15" fill="#808080" fill-opacity="0.4"/>
<path d="M14.4998 21.5833C15.8149 21.5833 17.0761 21.0627 18.006 20.1359C18.9359 19.2091 19.4583 17.9521 19.4583 16.6415C19.4583 16.0708 19.3063 15.5233 19.1278 15.0139C18.0259 16.099 17.1884 16.6415 16.6154 16.6415C19.2567 12.0291 17.8055 10.0523 13.8387 7.41666C14.1692 10.7112 11.9901 12.2096 11.1029 13.0418C10.3791 13.7203 9.8766 14.5998 9.66044 15.5663C9.44428 16.5329 9.52445 17.5418 9.89056 18.4624C10.2567 19.383 10.8918 20.1727 11.7137 20.7292C12.5356 21.2857 13.5062 21.5832 14.4998 21.5833ZM14.9692 9.8777C17.112 11.6897 17.1225 13.0978 15.467 15.9885C14.9639 16.8668 15.6006 17.9593 16.6154 17.9593C17.0703 17.9593 17.5305 17.8275 18.0164 17.5672C17.8724 18.1095 17.604 18.6111 17.2324 19.0324C16.8608 19.4537 16.3961 19.7833 15.875 19.9953C15.3539 20.2072 14.7905 20.2957 14.2292 20.2537C13.668 20.2117 13.1241 20.0405 12.6405 19.7535C12.157 19.4664 11.7468 19.0714 11.4425 18.5996C11.1381 18.1277 10.9478 17.5919 10.8865 17.0342C10.8253 16.4766 10.8948 15.9124 11.0895 15.3861C11.2842 14.8598 11.5988 14.3857 12.0086 14.0012C12.0919 13.9234 12.5144 13.5498 12.5329 13.5334C12.8132 13.283 13.044 13.0609 13.2721 12.8178C14.0853 11.9493 14.6697 10.986 14.9685 9.8777" fill="white" fill-opacity="0.8"/>
</svg>
