<svg width="30" height="30" viewBox="0 0 30 30" fill="none" xmlns="http://www.w3.org/2000/svg">
<circle cx="15" cy="15" r="15" fill="#808080" fill-opacity="0.4"/>
<path d="M10.1988 22V21.125H19.8012V22H10.1988ZM10.1537 19.4765L9.02744 12.7906C9.00152 12.8023 8.97248 12.8087 8.94033 12.8099C8.90767 12.8116 8.87837 12.8125 8.85244 12.8125C8.60822 12.8125 8.40522 12.7192 8.24344 12.5325C8.08167 12.3458 8.00052 12.1195 8 11.8535C8 11.5776 8.08115 11.3431 8.24344 11.15C8.40522 10.9575 8.60848 10.8612 8.85322 10.8612C9.09796 10.8612 9.30615 10.9575 9.47778 11.15C9.64889 11.3431 9.73444 11.5776 9.73444 11.8535C9.73444 11.9142 9.73237 11.9705 9.72822 12.0224C9.72407 12.0743 9.70878 12.1256 9.68233 12.1764L12.1728 13.3007L14.4836 9.76138C14.371 9.67854 14.2819 9.56888 14.216 9.43238C14.1501 9.29646 14.1172 9.14975 14.1172 8.99225C14.1172 8.71692 14.203 8.48271 14.3747 8.28963C14.5458 8.09654 14.754 8 14.9992 8C15.244 8 15.4524 8.09625 15.6246 8.28875C15.7967 8.48125 15.8828 8.71458 15.8828 8.98875C15.8828 9.15442 15.8499 9.30375 15.784 9.43675C15.7181 9.57092 15.629 9.67913 15.5164 9.76138L17.8264 13.3007L20.3177 12.1764C20.3037 12.1297 20.2915 12.0787 20.2811 12.0233C20.2707 11.9673 20.2656 11.9107 20.2656 11.8535C20.2656 11.5776 20.3464 11.3431 20.5082 11.15C20.67 10.9575 20.8733 10.8612 21.118 10.8612C21.3627 10.8612 21.5709 10.9575 21.7426 11.15C21.9142 11.3431 22 11.5776 22 11.8535C22 12.1183 21.9139 12.3444 21.7418 12.5316C21.5696 12.7189 21.3607 12.8125 21.1149 12.8125C21.0952 12.8125 21.0729 12.809 21.048 12.802C21.0231 12.795 20.9961 12.7912 20.9671 12.7906L19.8463 19.4756L10.1537 19.4765ZM10.8179 18.6015H19.1821L20.1364 13.2316L17.5566 14.3893L15 10.4535L12.4442 14.3893L9.86356 13.2316L10.8179 18.6015Z" fill="white" fill-opacity="0.8"/>
</svg>
